# xmcd
#
# Track frame offsets:
#	150
#	17031
#	33461
#	48779
#	67777
#	82921
#	99496
#	115758
#	132553
#	151820
#	165531
#
# Disc length: 2446 seconds
# Revision: 1
# Processed by: cddbd v1.5.2PL0 Copyright (c) Steve Scherf et al.
# Submitted via: dBpowerAMP V12.0
#
DISCID=7a098c0b
DTITLE=Alabama - The Box Set Series, Disc 2
DYEAR=2014
DGENRE=Country
TTITLE0=Roll On (Eighteen Wheeler)
TTITLE1=When We Make Love
TTITLE2=If You're Gonna Play In Texas (You Gotta Have a Fiddle In the Band)
TTITLE3=There's No Way
TTITLE4=Forty Hour Week (For a Livin')
TTITLE5=Can't Keep a Good Man Down
TTITLE6=She and I
TTITLE7=Touch Me When We're Dancing
TTITLE8=You've Got the Touch
TTITLE9=Face To Face (with K.T. Oslin)
TTITLE10=Fallin' Again
EXTD=
EXTT0=
EXTT1=
EXTT2=
EXTT3=
EXTT4=
EXTT5=
EXTT6=
EXTT7=
EXTT8=
EXTT9=
EXTT10=
PLAYORDER=
